<?xml version="1.0" standalone="no"?><!DOCTYPE svg PUBLIC "-//W3C//DTD SVG 1.1//EN" "http://www.w3.org/Graphics/SVG/1.1/DTD/svg11.dtd"><svg t="1564211713201" class="icon" viewBox="0 0 1024 1024" version="1.1" xmlns="http://www.w3.org/2000/svg" p-id="1945" xmlns:xlink="http://www.w3.org/1999/xlink" width="200" height="200"><defs><style type="text/css"></style></defs><path d="M538.2144 118.016l258.4064 154.0096a51.2 51.2 0 0 1 0 87.9616l-258.4064 154.0096a51.2 51.2 0 0 1-52.4288 0L227.3792 359.936a51.2 51.2 0 0 1 0-87.9616l258.4064-154.0096a51.2 51.2 0 0 1 52.4288 0z" fill="#FFFFFF" p-id="1946"></path><path d="M808.96 435.9168a51.2 51.2 0 0 1-12.3392 77.6704l-258.4064 154.0096a51.2 51.2 0 0 1-52.4288 0L227.3792 513.536A51.2 51.2 0 0 1 215.04 435.968a51.2 51.2 0 0 0 12.3392 10.2912l258.4064 154.0096a51.2 51.2 0 0 0 52.4288 0l258.4064-154.0096a51.2 51.2 0 0 0 12.3392-10.3424z" fill="#FFFFFF" p-id="1947"></path><path d="M808.7552 589.312a51.2 51.2 0 0 1-12.1344 77.824l-258.4064 154.0608a51.2 51.2 0 0 1-52.4288 0L227.3792 667.136a51.2 51.2 0 0 1-12.1344-77.8752 51.2 51.2 0 0 0 12.1344 10.0352l258.4064 154.0096a51.2 51.2 0 0 0 52.4288 0l258.4064-154.0096a51.2 51.2 0 0 0 12.1344-10.0864z" fill="#FFFFFF" p-id="1948"></path></svg>