<?xml version="1.0" standalone="no"?><!DOCTYPE svg PUBLIC "-//W3C//DTD SVG 1.1//EN" "http://www.w3.org/Graphics/SVG/1.1/DTD/svg11.dtd"><svg t="1564211647763" class="icon" viewBox="0 0 1024 1024" version="1.1" xmlns="http://www.w3.org/2000/svg" p-id="1322" xmlns:xlink="http://www.w3.org/1999/xlink" width="200" height="200"><defs><style type="text/css"></style></defs><path d="M204.8 153.6h665.6a51.2 51.2 0 0 1 51.2 51.2v409.6a51.2 51.2 0 0 1-51.2 51.2H204.8a51.2 51.2 0 0 1-51.2-51.2V204.8a51.2 51.2 0 0 1 51.2-51.2z m45.6704 305.8176v38.3488h91.0848l69.12-125.7984 108.1856 204.8512 140.288-270.2336 82.8928 191.1808h90.4704v-38.3488l-69.5296-0.3584-99.072-240.64-145.0496 279.3472-108.1856-206.7456-88.8832 168.448H250.4704z" fill="#FFFFFF" p-id="1323"></path><path d="M486.5024 614.4h102.4v153.6h-102.4z" fill="#FFFFFF" p-id="1324"></path><path d="M332.9024 768m25.6 0l358.4 0q25.6 0 25.6 25.6l0 0q0 25.6-25.6 25.6l-358.4 0q-25.6 0-25.6-25.6l0 0q0-25.6 25.6-25.6Z" fill="#FFFFFF" p-id="1325"></path></svg>