<?xml version="1.0" standalone="no"?><!DOCTYPE svg PUBLIC "-//W3C//DTD SVG 1.1//EN" "http://www.w3.org/Graphics/SVG/1.1/DTD/svg11.dtd"><svg t="1564036826062" class="icon" viewBox="0 0 1024 1024" version="1.1" xmlns="http://www.w3.org/2000/svg" p-id="958" xmlns:xlink="http://www.w3.org/1999/xlink" width="200" height="200"><defs><style type="text/css"></style></defs><path d="M844.8 268.8v227.584c0 158.848-123.392 326.912-271.6672 383.9744L499.2 908.8l-73.9328-28.4416C277.0176 823.2704 153.6 655.232 153.6 496.3584V268.8l345.6-153.6 345.6 153.6z m-25.6 15.36L499.2 140.8 179.2 284.16v212.4032c0 148.2752 115.584 306.816 251.9808 360.0896L499.2 883.2l68.0192-26.5472C703.616 803.4048 819.2 644.8384 819.2 496.5632V284.16z" fill="#FFFFFF" p-id="959"></path><path d="M594.2784 504.192L460.8 739.584l16.4608-185.4208L409.6 504.192l133.4784-235.392-16.4608 185.4208 67.6608 49.9712z m-33.6384 6.912l-60.3648-43.9808 6.8352-83.2-63.744 113.152 60.416 45.5168-7.0144 82.816 63.872-114.304z" fill="#FFFFFF" p-id="960"></path></svg>